<mxfile host="app.diagrams.net" modified="2023-05-01T09:16:36.304Z" agent="Mozilla/5.0 (Windows NT 10.0; Win64; x64) AppleWebKit/537.36 (KHTML, like Gecko) Chrome/112.0.0.0 Safari/537.36" etag="eIt8M7tEPhPCBMGVNTJA" version="21.2.3" type="device">
  <diagram name="Page-1" id="SFD5FbLWe2inRmjffrm_">
    <mxGraphModel dx="1195" dy="609" grid="1" gridSize="10" guides="1" tooltips="1" connect="1" arrows="1" fold="1" page="1" pageScale="1" pageWidth="850" pageHeight="1100" math="0" shadow="0">
      <root>
        <mxCell id="0" />
        <mxCell id="1" parent="0" />
        <mxCell id="dXeJd9fdskiibIoUs9Um-12" value="&lt;font style=&quot;&quot;&gt;&lt;i style=&quot;font-size: 13px;&quot;&gt;&amp;lt;&amp;lt;HttpServlet&amp;gt;&amp;gt;&lt;/i&gt;&lt;br&gt;&lt;span style=&quot;font-size: 15px;&quot;&gt;&lt;b&gt;placeBid&lt;/b&gt;&lt;/span&gt;&lt;br&gt;&lt;/font&gt;" style="shape=parallelogram;perimeter=parallelogramPerimeter;whiteSpace=wrap;html=1;fixedSize=1;strokeColor=#FF00FF;strokeWidth=2;" parent="1" vertex="1">
          <mxGeometry x="560" y="730" width="140" height="60" as="geometry" />
        </mxCell>
        <mxCell id="dXeJd9fdskiibIoUs9Um-36" value="&lt;i&gt;POST&lt;br&gt;&lt;/i&gt;auction, bid" style="rounded=0;whiteSpace=wrap;html=1;" parent="1" vertex="1">
          <mxGeometry x="425" y="660" width="75" height="40" as="geometry" />
        </mxCell>
        <mxCell id="dXeJd9fdskiibIoUs9Um-37" value="" style="endArrow=classic;html=1;rounded=0;exitX=0.5;exitY=1;exitDx=0;exitDy=0;" parent="1" source="dXeJd9fdskiibIoUs9Um-36" edge="1">
          <mxGeometry width="50" height="50" relative="1" as="geometry">
            <mxPoint x="510" y="780" as="sourcePoint" />
            <mxPoint x="420" y="760" as="targetPoint" />
          </mxGeometry>
        </mxCell>
        <mxCell id="dXeJd9fdskiibIoUs9Um-1" value="" style="whiteSpace=wrap;html=1;strokeWidth=3;strokeColor=#009900;movable=1;resizable=1;rotatable=1;deletable=1;editable=1;locked=0;connectable=1;" parent="1" vertex="1">
          <mxGeometry x="100" y="340" width="310" height="470" as="geometry" />
        </mxCell>
        <mxCell id="dXeJd9fdskiibIoUs9Um-2" value="&lt;font size=&quot;1&quot; color=&quot;#009900&quot; style=&quot;&quot;&gt;&lt;b style=&quot;font-size: 20px;&quot;&gt;auctionOffer&lt;/b&gt;&lt;/font&gt;" style="text;html=1;strokeColor=none;fillColor=none;align=left;verticalAlign=middle;whiteSpace=wrap;rounded=0;" parent="1" vertex="1">
          <mxGeometry x="112.4" y="345" width="62.00000000000001" height="30" as="geometry" />
        </mxCell>
        <mxCell id="dXeJd9fdskiibIoUs9Um-3" value="&lt;font style=&quot;&quot;&gt;&lt;i&gt;&lt;font style=&quot;font-size: 13px;&quot;&gt;&amp;lt;&amp;lt;table&amp;gt;&amp;gt;&lt;/font&gt;&lt;/i&gt;&lt;br&gt;&lt;span style=&quot;font-size: 15px;&quot;&gt;&lt;b&gt;List of articles&lt;br&gt;&lt;/b&gt;&lt;/span&gt;&lt;br&gt;[&lt;i&gt;field:&lt;/i&gt;&amp;nbsp;Starting price]&lt;br&gt;[&lt;i style=&quot;border-color: var(--border-color);&quot;&gt;field:&lt;/i&gt;&amp;nbsp;Name]&lt;br&gt;[&lt;i style=&quot;border-color: var(--border-color);&quot;&gt;field:&lt;/i&gt;&amp;nbsp;Description]&lt;br&gt;[&lt;i style=&quot;border-color: var(--border-color);&quot;&gt;field:&lt;/i&gt;&amp;nbsp;Image]&lt;br&gt;&lt;/font&gt;" style="rounded=1;whiteSpace=wrap;html=1;strokeWidth=3;strokeColor=#FF8000;" parent="1" vertex="1">
          <mxGeometry x="159.42" y="382" width="210.58" height="128" as="geometry" />
        </mxCell>
        <mxCell id="dXeJd9fdskiibIoUs9Um-35" value="&lt;font style=&quot;&quot;&gt;&lt;i style=&quot;font-size: 13px;&quot;&gt;&amp;lt;&amp;lt;table&amp;gt;&amp;gt;&lt;/i&gt;&lt;br&gt;&lt;span style=&quot;font-size: 15px;&quot;&gt;&lt;b&gt;List of bids&lt;br&gt;&lt;/b&gt;&lt;/span&gt;&lt;br&gt;[&lt;i&gt;field:&lt;/i&gt;&amp;nbsp;Placed on]&lt;br&gt;[&lt;i style=&quot;border-color: var(--border-color);&quot;&gt;field:&lt;/i&gt;&amp;nbsp;Bidder username]&lt;br&gt;[&lt;i style=&quot;border-color: var(--border-color);&quot;&gt;field:&lt;/i&gt;&amp;nbsp;Amount]&lt;br&gt;&lt;/font&gt;" style="rounded=1;whiteSpace=wrap;html=1;strokeWidth=3;strokeColor=#FF8000;" parent="1" vertex="1">
          <mxGeometry x="159.42" y="530" width="210.58" height="120" as="geometry" />
        </mxCell>
        <mxCell id="flikKrBvzFRnm8usu3l--1" value="&lt;font style=&quot;&quot;&gt;&lt;i style=&quot;font-size: 13px;&quot;&gt;&amp;lt;&amp;lt;form href=&quot;...&quot;&amp;gt;&amp;gt;&lt;/i&gt;&lt;br&gt;&lt;span style=&quot;font-size: 15px;&quot;&gt;&lt;b&gt;Place bid&lt;br&gt;&lt;/b&gt;&lt;/span&gt;&lt;br&gt;[&lt;i&gt;field:&lt;/i&gt;&amp;nbsp;Amount]&lt;br&gt;[hidden&amp;nbsp;&lt;i style=&quot;border-color: var(--border-color);&quot;&gt;field:&lt;/i&gt;&amp;nbsp;auction]&lt;br&gt;&lt;/font&gt;" style="rounded=1;whiteSpace=wrap;html=1;strokeWidth=3;strokeColor=#FF8000;" vertex="1" parent="1">
          <mxGeometry x="159.42" y="670" width="210.58" height="120" as="geometry" />
        </mxCell>
        <mxCell id="dXeJd9fdskiibIoUs9Um-8" value="" style="ellipse;whiteSpace=wrap;html=1;aspect=fixed;strokeWidth=2;fillColor=#6666FF;strokeColor=#6666FF;" parent="1" vertex="1">
          <mxGeometry x="360" y="750" width="20" height="20" as="geometry" />
        </mxCell>
        <mxCell id="dXeJd9fdskiibIoUs9Um-22" value="" style="endArrow=none;html=1;rounded=0;strokeColor=#6666FF;strokeWidth=2;startArrow=classic;startFill=1;entryX=1;entryY=0.5;entryDx=0;entryDy=0;exitX=0;exitY=0.5;exitDx=0;exitDy=0;" parent="1" edge="1" source="dXeJd9fdskiibIoUs9Um-12">
          <mxGeometry width="50" height="50" relative="1" as="geometry">
            <mxPoint x="480" y="760.1" as="sourcePoint" />
            <mxPoint x="380" y="759.7600000000001" as="targetPoint" />
          </mxGeometry>
        </mxCell>
        <mxCell id="flikKrBvzFRnm8usu3l--2" value="" style="endArrow=none;html=1;rounded=0;strokeColor=#6666FF;strokeWidth=2;startArrow=classic;startFill=1;entryX=0.5;entryY=0;entryDx=0;entryDy=0;" edge="1" parent="1" target="dXeJd9fdskiibIoUs9Um-12">
          <mxGeometry width="50" height="50" relative="1" as="geometry">
            <mxPoint x="412" y="580" as="sourcePoint" />
            <mxPoint x="621.9999999999998" y="730" as="targetPoint" />
            <Array as="points">
              <mxPoint x="630" y="580" />
            </Array>
          </mxGeometry>
        </mxCell>
      </root>
    </mxGraphModel>
  </diagram>
</mxfile>
